<svg preserveAspectRatio="none" width="100%" height="100%" overflow="visible" style="display: block;" viewBox="0 0 160 35" fill="none" xmlns="http://www.w3.org/2000/svg">
<g id="Rectangle 251">
<path d="M8.38091 13.8545C2.06561 -1.98784 52.0613 2.92019 79.9931 4.54141C111.293 6.3581 161.239 -10.7654 159.955 11.7135C159.233 24.338 116.122 8.89909 124.523 18.3502C126.997 21.1332 142.614 17.1727 144.648 24.0235C148.518 37.0608 106.345 24.5432 81.8129 25.3079C53.1224 26.2022 5.49126 43.5059 0.138608 28.8406C-2.43799 21.7812 31.8319 26.0518 26.1502 21.1332C18.9787 14.925 12.1147 23.221 8.38091 13.8545Z" fill="var(--fill-0, #D9FF9C)"/>
<path d="M8.38091 13.8545C2.06561 -1.98784 52.0613 2.92019 79.9931 4.54141C111.293 6.3581 161.239 -10.7654 159.955 11.7135C159.233 24.338 116.122 8.89909 124.523 18.3502C126.997 21.1332 142.614 17.1727 144.648 24.0235C148.518 37.0608 106.345 24.5432 81.8129 25.3079C53.1224 26.2022 5.49126 43.5059 0.138608 28.8406C-2.43799 21.7812 31.8319 26.0518 26.1502 21.1332C18.9787 14.925 12.1147 23.221 8.38091 13.8545Z" fill="url(#paint0_linear_0_5)" fill-opacity="0.44"/>
</g>
<defs>
<linearGradient id="paint0_linear_0_5" x1="0" y1="17.3576" x2="159.979" y2="17.3576" gradientUnits="userSpaceOnUse">
<stop stop-color="white" stop-opacity="0"/>
<stop offset="1" stop-color="#FFE600"/>
</linearGradient>
</defs>
</svg>
