<svg preserveAspectRatio="none" width="100%" height="100%" overflow="visible" style="display: block;" viewBox="0 0 120 45" fill="none" xmlns="http://www.w3.org/2000/svg">
<path id="computer-youtube-arrow" d="M0.603293 38.4085C-0.563373 40.2845 0.0116152 42.751 1.88756 43.9177C3.76351 45.0844 6.23004 44.5094 7.39671 42.6334L4 40.521L0.603293 38.4085ZM40.9754 5.39559L39.7428 1.59024L39.7428 1.59024L40.9754 5.39559ZM114.265 44.5202C116.473 44.5645 118.3 42.8099 118.344 40.6012L119.066 4.60841C119.11 2.39972 117.356 0.573312 115.147 0.529024C112.938 0.484735 111.112 2.23933 111.067 4.44803L110.426 36.4416L78.4323 35.8001C76.2236 35.7558 74.3972 37.5104 74.353 39.7191C74.3087 41.9278 76.0633 43.7542 78.272 43.7985L114.265 44.5202ZM4 40.521C7.39671 42.6334 7.39639 42.6339 7.39614 42.6343C7.39614 42.6343 7.39596 42.6346 7.39597 42.6346C7.396 42.6346 7.3963 42.6341 7.39687 42.6332C7.39801 42.6313 7.40024 42.6278 7.40354 42.6225C7.41015 42.6119 7.42106 42.5945 7.43621 42.5705C7.46651 42.5224 7.51375 42.4478 7.57742 42.3482C7.70478 42.1489 7.89775 41.8499 8.15218 41.4636C8.6612 40.6908 9.41515 39.5703 10.3807 38.2025C12.3148 35.4628 15.0828 31.7522 18.4183 27.8643C25.2421 19.9102 33.8693 11.9019 42.208 9.20095L40.9754 5.39559L39.7428 1.59024C29.134 5.02651 19.2735 14.5809 12.3465 22.6553C8.8066 26.7815 5.88339 30.7015 3.84513 33.5888C2.82451 35.0346 2.02201 36.2268 1.47111 37.0632C1.19558 37.4816 0.98273 37.8113 0.836754 38.0397C0.763758 38.1539 0.70746 38.2428 0.668381 38.3048C0.648841 38.3358 0.633604 38.3601 0.622735 38.3774C0.6173 38.3861 0.612958 38.393 0.609715 38.3982C0.608093 38.4008 0.606747 38.403 0.605676 38.4047C0.605141 38.4056 0.604545 38.4065 0.604277 38.407C0.603751 38.4078 0.603293 38.4085 4 40.521ZM40.9754 5.39559L42.208 9.20095C48.6346 7.1193 56.0491 7.85848 63.8956 10.5394C71.7182 13.2122 79.6094 17.6943 86.7282 22.5845C93.8261 27.4602 100.025 32.6504 104.458 36.6318C106.67 38.6192 108.433 40.2972 109.638 41.4729C110.24 42.0606 110.702 42.5222 111.011 42.8336C111.165 42.9893 111.281 43.1073 111.356 43.1848C111.394 43.2235 111.422 43.2521 111.439 43.2701C111.448 43.2791 111.454 43.2855 111.457 43.2892C111.459 43.291 111.46 43.2922 111.461 43.2927C111.461 43.2929 111.461 43.2928 111.461 43.2929C111.461 43.2926 111.46 43.2921 114.345 40.521C117.229 37.7498 117.229 37.749 117.228 37.748C117.227 37.7475 117.226 37.7463 117.225 37.7452C117.223 37.743 117.22 37.74 117.217 37.7365C117.21 37.7293 117.2 37.7194 117.188 37.7068C117.164 37.6818 117.129 37.6461 117.084 37.6001C116.995 37.5082 116.864 37.3752 116.695 37.2043C116.357 36.8626 115.862 36.3688 115.226 35.7475C113.953 34.5052 112.109 32.7507 109.804 30.6803C105.201 26.5463 98.7248 21.1196 91.2579 15.9904C83.812 10.8756 75.2496 5.96465 66.4822 2.96909C57.7387 -0.0182795 48.4267 -1.22255 39.7428 1.59024L40.9754 5.39559Z" fill="var(--stroke-0, white)"/>
</svg>
