<svg preserveAspectRatio="none" width="100%" height="100%" overflow="visible" style="display: block;" viewBox="0 0 1566 82" fill="none" xmlns="http://www.w3.org/2000/svg">
<g id="navigation">
<path id="next" d="M1563.89 44.8891C1566.04 42.7412 1566.04 39.2588 1563.89 37.1109L1528.89 2.10913C1526.74 -0.0387566 1523.26 -0.0387566 1521.11 2.10913C1518.96 4.25701 1518.96 7.73942 1521.11 9.8873L1552.22 41L1521.11 72.1127C1518.96 74.2606 1518.96 77.743 1521.11 79.8909C1523.26 82.0388 1526.74 82.0388 1528.89 79.8909L1563.89 44.8891ZM1557 41V46.5H1560V41V35.5H1557V41Z" fill="var(--stroke-0, white)"/>
<path id="prev" d="M2.11091 44.8891C-0.0369709 42.7412 -0.0369709 39.2588 2.11091 37.1109L37.1127 2.10913C39.2606 -0.0387566 42.743 -0.0387566 44.8909 2.10913C47.0388 4.25701 47.0388 7.73942 44.8909 9.8873L13.7782 41L44.8909 72.1127C47.0388 74.2606 47.0388 77.743 44.8909 79.8909C42.743 82.0388 39.2606 82.0388 37.1127 79.8909L2.11091 44.8891ZM9 41L9 46.5H6L6 41L6 35.5H9L9 41Z" fill="var(--stroke-0, white)"/>
</g>
</svg>
