<svg preserveAspectRatio="none" width="100%" height="100%" overflow="visible" style="display: block;" viewBox="0 0 1597 82" fill="none" xmlns="http://www.w3.org/2000/svg">
<g id="navigation">
<path id="after" d="M1594.89 44.8891C1597.04 42.7412 1597.04 39.2588 1594.89 37.1109L1559.89 2.10913C1557.74 -0.0387566 1554.26 -0.0387566 1552.11 2.10913C1549.96 4.25701 1549.96 7.73942 1552.11 9.8873L1583.22 41L1552.11 72.1127C1549.96 74.2606 1549.96 77.743 1552.11 79.8909C1554.26 82.0388 1557.74 82.0388 1559.89 79.8909L1594.89 44.8891ZM1588 41V46.5H1591V41V35.5H1588V41Z" fill="var(--stroke-0, white)"/>
<path id="before" d="M2.11091 44.8891C-0.0369709 42.7412 -0.0369709 39.2588 2.11091 37.1109L37.1127 2.10913C39.2606 -0.0387566 42.743 -0.0387566 44.8909 2.10913C47.0388 4.25701 47.0388 7.73942 44.8909 9.8873L13.7782 41L44.8909 72.1127C47.0388 74.2606 47.0388 77.743 44.8909 79.8909C42.743 82.0388 39.2606 82.0388 37.1127 79.8909L2.11091 44.8891ZM9 41L9 46.5H6L6 41L6 35.5H9L9 41Z" fill="var(--stroke-0, white)"/>
</g>
</svg>
